<?xml version="1.0" encoding="utf-8" ?>
<svg xmlns="http://www.w3.org/2000/svg" xmlns:xlink="http://www.w3.org/1999/xlink" width="512" height="512">
	<path fill="#FAF2CA" transform="scale(0.5 0.5)" d="M836.358 336.008C838.978 338.393 841.498 340.13 844.63 341.789C843.333 344.263 841.174 345.369 839.398 347.395C837.027 350.098 834.987 352.977 833.052 356L832.593 356.677L826.075 367.147L824.491 369.979C822.743 368.409 821.065 367.599 818.902 366.713L819.004 364.265L818.833 363.324C821.743 359.88 823.893 355.815 826.249 351.985C829.551 346.619 833.019 341.353 836.358 336.008Z"/>
	<path fill="#F7D465" transform="scale(0.5 0.5)" d="M819.004 364.265C820.29 364.4 821.949 364.255 822.927 365.099C823.879 365.92 824.991 366.519 826.075 367.147L824.491 369.979C822.743 368.409 821.065 367.599 818.902 366.713L819.004 364.265Z"/>
	<path fill="#0C3C69" transform="scale(0.5 0.5)" d="M259.82 408.135C268.384 407.268 276.598 408.318 283.935 413.13C288.984 416.441 293.153 422.289 294.241 428.3C295.316 434.237 294.133 439.187 290.688 444.035C290.562 445.907 291.994 448.298 292.506 450.168C294.054 455.813 292.598 462.61 289.516 467.472C285.072 474.483 277.694 478.2 269.882 480.114C263.655 481.003 258.107 480.041 252.397 477.454C245.251 474.217 238.307 469.522 235.674 461.75C234.162 457.289 233.993 452.607 236.054 448.307C236.543 447.285 234.355 442.113 234.065 440.5C232.817 433.555 234.544 425.936 238.732 420.263C243.921 413.235 251.387 409.543 259.82 408.135Z"/>
	<path fill="#0C3C69" transform="scale(0.5 0.5)" d="M250.957 50.1198C254.482 49.6952 258.021 49.6216 261.5 50.4505C267.237 51.8173 273.047 55.4634 276.135 60.5877L276.519 61.25C278.484 64.5965 279.46 68.5705 280.796 72.2053C282.848 77.7878 285.525 83.2317 288.216 88.5331C289.918 91.8863 291.801 95.7041 294.516 98.3414C296.546 100.314 299.4 101.495 301.966 102.63C311.063 106.656 321.087 109.182 329.75 114.064C335.42 117.26 339.719 122.895 341.431 129.154C343.124 135.345 342.816 142.012 339.784 147.75C332.879 160.818 318.854 163.718 306.197 168.967C302.192 170.629 298.113 172.33 294.909 175.337C289.526 180.39 286.011 187.152 283.25 193.916C281.377 198.505 279.9 203.3 277.307 207.561C273.105 214.466 266.994 218.352 259.295 220.294C255.401 220.587 251.311 220.815 247.469 219.952C226.742 215.299 229.607 190.923 217.258 177.938C210.912 171.265 200.663 167.349 192.242 164.017C184.313 160.88 176.594 158.931 171.842 151.13C167.769 144.442 166.33 136.767 168.361 129.125C173.217 110.855 194.511 111.039 208.139 102.945C210.633 101.464 212.994 100.017 215.025 97.9145C217.281 95.5797 218.812 92.5288 220.397 89.723C223.584 84.0825 226.457 78.2827 228.664 72.1818C229.978 68.5522 230.949 64.1435 233.076 60.9141C237.169 54.6969 243.85 51.5152 250.957 50.1198ZM254.59 129.25C252.79 132.138 251.011 134.871 248.497 137.21L254.384 144.155L255.25 144.071C257.192 142.143 260.399 139.664 261.668 137.312C260.417 135.99 255.633 129.553 254.59 129.25Z"/>
	<path fill="#0C3C69" transform="scale(0.5 0.5)" d="M355.89 218.61C358.582 218.289 361.691 218.343 364.359 218.821C381.934 221.97 383.492 235.378 389.019 249.25C392.227 257.303 396.102 265.318 400.972 272.5C409.995 285.809 429.082 291.898 442.926 298.937C449.675 302.369 455.751 305.02 459.568 312.008C462.84 317.998 463.321 325.798 461.233 332.275L460.989 333C458.383 340.89 452.927 346.196 445.417 349.517C442.312 350.89 439.067 351.752 435.945 353.043C424.018 357.975 406.632 364.609 399.236 375.66L398.75 376.405C393.993 383.619 390.602 391.976 387.315 399.947C384.964 405.649 382.691 412.073 378.735 416.881C373.678 423.028 366.964 425.059 359.378 425.776C351.859 425.502 344.529 423.546 339.205 417.857C336.057 414.494 334.322 409.802 332.527 405.633C327.013 392.824 322.312 377.865 311.498 368.487C302.137 360.367 289.289 355.246 277.919 350.611C273.207 348.69 268.376 347.173 264.045 344.432C258.791 341.107 254.741 335.916 253.403 329.787C248.072 305.363 271.232 300.428 288.111 292.316C298.19 287.473 308.534 281.122 316.074 272.75C323.668 264.319 328.33 251.481 332.818 241.153C334.541 237.189 336.152 233.012 338.524 229.378C342.513 223.267 348.927 220.017 355.89 218.61ZM357.825 294.25C352.228 301.497 346.734 308.615 339.963 314.828C336.781 317.748 333.047 320.26 329.58 322.84C341.302 328.959 350.324 338.889 357.921 349.624C358.901 349.597 358.438 349.762 359.25 348.986C368.292 339.331 377.499 330.953 388.267 323.263L387.696 322.928C383.388 320.351 379.336 316.981 375.75 313.474C373.164 310.945 358.825 294.434 357.825 294.25Z"/>
	<path fill="#0C3C69" transform="scale(0.5 0.5)" d="M757.021 527.658C759.539 529.444 889.323 526.618 906.25 528.568C918.782 530.012 928.999 536.687 936.631 546.541C941.275 552.538 943.813 560.046 944.431 567.562C945.037 574.917 944.611 582.471 944.555 589.851C944.454 602.92 944.326 615.988 944.449 629.057C945 687.299 944.494 745.595 944.265 803.842C944.148 833.682 944.499 863.554 944.518 893.4C944.523 901.663 944.527 909.926 944.516 918.19C944.509 923.238 944.796 928.499 944.16 933.506L943.918 935.487C942.472 947.739 935.956 958.496 926.333 966.064C918.768 972.013 910.128 975.204 900.526 975.907C888.766 976.768 876.316 976.002 864.487 976.005C840.193 976.012 815.9 976.007 791.606 975.999C725.73 975.977 659.855 976.029 593.979 975.978C577.006 975.964 560.025 975.426 543.062 975.487C491.119 975.675 439.163 976.332 387.215 975.857C368.627 975.687 350.042 974.998 331.456 974.644C304.23 974.125 276.983 974.042 249.752 973.567C238.812 973.376 227.883 972.804 216.943 972.61C182.556 972.002 148.26 977.277 113.997 973.103L113.439 972.25L114.126 970.25C110.952 969.183 105.838 969.665 102.421 969.521C88.9709 968.955 75.4636 968.1 62.0069 968.85C55.0087 969.241 46.9592 970.975 40.0762 970.117C34.087 969.371 28.2537 965.225 24.7153 960.473C18.973 952.76 18.4322 942.757 17.7035 933.529C17.3224 928.703 16.798 923.894 16.498 919.061C14.8003 891.711 15.7211 863.957 15.7561 836.562C15.8172 788.762 15.9937 740.946 15.8788 693.148C15.8095 664.289 15.5009 635.419 15.3601 606.557C15.3191 598.153 15.2088 589.749 15.2173 581.345C15.2236 575.177 15.1362 568.732 16.1001 562.628C18.4647 547.654 27.233 535.638 41.7534 530.631C50.5988 527.581 59.8383 527.958 69.051 527.958C77.5737 527.959 86.0964 527.968 94.6191 527.971C110.972 527.977 127.325 527.985 143.679 527.988C349.007 528.038 469.908 528.023 469.931 527.999C470.444 527.466 471.104 524.696 471.376 523.914C473.099 518.97 474.74 513.991 476.525 509.068C481.63 494.985 487.249 481.13 492.719 467.189C497.608 454.729 502.238 442.245 507.428 429.899C509.863 424.107 511.894 416.708 515.464 411.581C517.898 408.086 521.694 405.319 524.734 402.365C529.905 397.339 534.983 392.21 540.107 387.135C562.131 365.322 584.203 343.52 606.127 321.611C654.668 273.101 703.153 224.525 751.378 175.695C760.36 166.601 769.834 158.005 778.759 148.855C803.55 123.436 828.651 98.4408 854.012 73.5919C857.53 70.1448 860.905 66.5852 864.175 62.9019C866.608 60.1613 868.88 57.0179 871.931 54.9256C876.888 51.5267 883.729 50.2135 889.658 51.4814C893.329 52.2663 896.216 53.992 899.021 56.4402C902.251 59.2585 905.044 62.7334 908.064 65.7966C915.789 73.6336 923.454 81.5335 931.238 89.3117C944.818 102.88 958.224 116.632 971.858 130.139C979.467 137.677 986.987 145.261 994.406 152.987C998.86 157.626 1003.95 162.422 1007.38 167.878C1010.52 172.86 1011.5 179.369 1010.06 185.109C1008.67 190.653 1005.26 195.017 1001.62 199.289C993.479 208.838 984.501 217.685 975.671 226.587C965.871 236.466 956.159 246.395 946.25 256.168C938.113 264.193 930.395 272.631 922.371 280.767C913.259 290.007 903.871 298.984 894.677 308.144C887.583 315.211 881.161 322.9 874.154 330.049C870.308 333.975 866.287 338.221 861.396 340.845C856.401 343.526 850.357 343.733 845.034 341.93L844.63 341.789C841.498 340.13 838.978 338.393 836.358 336.008C833.019 341.353 829.551 346.619 826.249 351.985C823.893 355.815 821.743 359.88 818.833 363.324L819.004 364.265L818.902 366.713C821.065 367.599 822.743 368.409 824.491 369.979C823.374 371.704 822.308 373.017 820.75 374.361L819.25 374.289L818.82 376.259C818.117 380.208 817.217 383.679 814.681 386.908C811.539 390.909 807.312 394.368 803.75 398.015C793.304 408.71 782.672 419.118 772.126 429.706C755.92 445.977 740.026 462.546 723.93 478.922C707.668 495.467 691.188 511.824 675.457 528.878C677.47 529.151 679.557 528.766 681.58 528.642C684.56 528.46 687.571 528.468 690.557 528.415C705.478 528.152 720.393 528.286 735.29 527.319C739.987 527.014 744.651 526.437 749.331 525.958C750.13 525.876 752.347 525.378 753.05 525.577C754.278 525.925 755.863 527.038 757.021 527.658Z"/>
	<path fill="#FAF2CA" transform="scale(0.5 0.5)" d="M818.902 366.713C821.065 367.599 822.743 368.409 824.491 369.979C823.374 371.704 822.308 373.017 820.75 374.361L819.25 374.289L818.82 376.259C818.255 373.323 818.753 369.697 818.902 366.713Z"/>
	<path fill="#427DC2" transform="scale(0.5 0.5)" d="M541.586 480.75C543.741 481.664 546.193 484.374 547.941 485.96C557.458 494.599 565.831 505.356 576.015 513.121L576.701 513.636C575.997 514.346 572.632 514.871 571.554 515.166C565.007 516.958 558.466 518.707 551.891 520.396L523.287 528.1C527.261 516.746 531.069 505.421 535.591 494.264C537.399 489.804 539.102 484.859 541.586 480.75Z"/>
	<path fill="white" transform="scale(0.5 0.5)" d="M835.36 160.532C844.678 166.126 856.873 174.36 859.628 185.426L864.459 205.467C855.864 206.407 848.875 207.539 843.156 214.806C839.408 219.569 838.534 224.279 838.138 230.158C837.252 230.152 836.624 230.031 835.784 229.75L836 228.75C834.867 228.728 833.94 228.71 832.837 228.424L805.326 221.955C799.167 216.853 796.87 207.839 795.188 200.393C800.283 196.376 804.871 191.486 809.507 186.939C818.313 178.303 826.902 169.509 835.36 160.532Z"/>
	<path fill="#F7D465" transform="scale(0.5 0.5)" d="M835.36 160.532L883.881 111.59L952.745 180.548L900.683 232.98C895.757 227.712 890.752 222.526 885.672 217.407C882.145 213.854 877.938 209.2 873.308 207.139C870.467 205.875 867.511 205.719 864.459 205.467L859.628 185.426C856.873 174.36 844.678 166.126 835.36 160.532Z"/>
	<path fill="#F7D465" transform="scale(0.5 0.5)" d="M852.71 253.637L866.788 267.588C858.297 275.868 850.002 284.276 842.055 293.083C838.309 297.236 833.986 301.497 831.266 306.407C829.678 309.274 828.948 312.244 828.914 315.502C828.826 323.76 831.838 329.372 836.358 336.008C833.019 341.353 829.551 346.619 826.249 351.985C823.893 355.815 821.743 359.88 818.833 363.324C814.767 356.386 807.512 350.719 799.651 348.873C793.898 347.521 787.93 348.79 783.055 352.053C777.69 355.642 772.992 361.124 768.365 365.648C755.104 378.614 742.508 392.167 729.392 405.255C705.814 428.779 682.066 452.105 658.694 475.845C653.632 480.987 648.494 486.057 643.394 491.163C640.234 494.326 636.729 497.441 634.251 501.191L617.39 484.598C620.384 483.536 622.841 481.284 625.22 479.25C629.827 475.313 634.265 471.11 638.651 466.929C647.182 458.797 655.072 450.019 663.278 441.567C673.678 430.855 684.409 420.348 694.971 409.781C727.063 377.673 759.016 345.374 791.302 313.457C797.758 307.075 804.622 301.135 811.061 294.746C816.543 289.306 822.087 283.887 827.33 278.216C835.266 269.632 843.137 260.439 852.71 253.637Z"/>
	<path fill="#F7D465" transform="scale(0.5 0.5)" d="M593.812 462.04C583.186 452.588 573.854 441.327 562.531 432.723C566.294 429.86 569.309 425.991 572.701 422.698C585.197 410.569 596.85 397.728 609.266 385.558C623.028 372.067 636.472 358.295 650.166 344.742C661.43 333.593 673.01 322.725 684.154 311.459C701.524 293.899 718.439 275.882 735.947 258.449C741.334 253.086 747.034 248.052 752.477 242.748C766.787 228.802 780.147 213.543 795.188 200.393C796.87 207.839 799.167 216.853 805.326 221.955C792.214 235.694 779.673 250.035 766.449 263.693C751.713 278.913 736.164 293.297 721.14 308.224C702.453 326.79 684.303 345.944 665.673 364.588C653.985 376.284 642.37 388.072 630.534 399.617C620.511 409.393 608.441 418.548 600.975 430.5L600.603 431.086C596.583 437.501 593.131 445.431 592.992 453.107C592.937 456.149 593.58 459.031 593.812 462.04Z"/>
	<path fill="#FAF2CA" transform="scale(0.5 0.5)" d="M805.326 221.955L832.837 228.424C833.94 228.71 834.867 228.728 836 228.75L835.784 229.75C836.624 230.031 837.252 230.152 838.138 230.158C839.185 240.273 845.968 246.683 852.71 253.637C843.137 260.439 835.266 269.632 827.33 278.216C822.087 283.887 816.543 289.306 811.061 294.746C804.622 301.135 797.758 307.075 791.302 313.457C759.016 345.374 727.063 377.673 694.971 409.781C684.409 420.348 673.678 430.855 663.278 441.567C655.072 450.019 647.182 458.797 638.651 466.929C634.265 471.11 629.827 475.313 625.22 479.25C622.841 481.284 620.384 483.536 617.39 484.598L593.812 462.04C593.58 459.031 592.937 456.149 592.992 453.107C593.131 445.431 596.583 437.501 600.603 431.086L600.975 430.5C608.441 418.548 620.511 409.393 630.534 399.617C642.37 388.072 653.985 376.284 665.673 364.588C684.303 345.944 702.453 326.79 721.14 308.224C736.164 293.297 751.713 278.913 766.449 263.693C779.673 250.035 792.214 235.694 805.326 221.955Z"/>
	<path fill="#0E4476" transform="scale(0.5 0.5)" d="M166.135 576.779L178.945 576.37L179.734 626.972L137.068 626.999C121.918 627.599 107.574 634.612 97.4293 645.75C90.7912 653.038 85.7318 662.447 83.4733 672.051C81.4644 680.594 81.8131 689.723 81.6512 698.461C81.359 714.23 81.5314 730.002 81.5961 745.773C81.6603 761.432 80.9345 777.22 81.547 792.858C82.287 811.751 86.4106 826.493 100.742 839.608C104.809 843.331 109.598 846.289 114.357 849.039C120.732 852.725 127.801 856.187 135 857.883C149 861.182 164.933 860.009 179.22 859.436C179.256 877.462 179.447 895.474 179.133 913.5C179.08 916.561 179.809 923.159 178.598 925.831L172.375 925.801C149.227 925.073 125.912 924.921 102.75 925.046C92.9604 925.099 82.9778 926.214 73.2256 925.741C70.8383 925.626 68.395 925.598 66.4658 924.022C64.9551 921.462 65.3348 917.071 65.2677 914.066C64.3421 872.587 65.067 831.033 65.2416 789.55C65.3326 767.923 64.8096 746.308 64.7198 724.685C64.6677 712.132 65.048 699.556 65.1233 687C65.2159 671.569 65.2284 656.106 64.9592 640.678C64.5955 619.835 63.9489 598.882 65.0049 578.052L166.135 576.779Z"/>
	<path fill="#FAF2CA" transform="scale(0.5 0.5)" d="M675.457 528.878C677.47 529.151 679.557 528.766 681.58 528.642C684.56 528.46 687.571 528.468 690.557 528.415C705.478 528.152 720.393 528.286 735.29 527.319C739.987 527.014 744.651 526.437 749.331 525.958C750.13 525.876 752.347 525.378 753.05 525.577C754.278 525.925 755.863 527.038 757.021 527.658C755.888 528.455 754.809 529.121 753.589 529.774C747.418 533.078 742.056 540.637 740.037 547.25C738.227 553.176 739.239 559.823 742.352 565.105C745.259 570.037 750.397 574.695 756.006 576.16L758.25 576.571L759.005 576.698C763.356 577.367 768.128 577.019 772.539 577.015C780.289 577.008 788.039 577.003 795.789 577.007C817.959 577.021 840.13 577.11 862.3 577.106C873.172 577.104 884.121 576.688 894.982 577.045L895.094 627.432C802.197 627.857 709.274 627.537 616.375 627.463C583.632 627.438 550.854 627.211 518.115 627.899C507.029 628.132 495.048 627.206 484.1 628.716C479.055 629.412 474.419 632.27 470.884 635.846C465.547 641.245 463.904 646.978 463.828 654.45L408.616 653.019C408.045 646.9 407.349 640.953 402.833 636.334C399.062 632.477 394.007 629.533 388.679 628.565C383.353 627.598 377.462 628.141 372.05 628.205C363.543 628.305 355.044 628.354 346.537 628.309C306.99 628.101 267.446 628.349 227.9 628.052L228.015 576.637C282.461 576.088 336.919 576.697 391.369 576.264C403.584 576.167 415.827 576.262 428.042 576.37C435.378 576.435 442.96 576.921 450.25 576.112C455.779 575.498 463.341 574.531 468.809 575.148C469.258 575.198 469.912 575.752 470.251 576.028C475.571 580.348 482.311 584.141 489.219 584.85C492.221 585.158 495.574 584.711 498.518 584.087C525.082 578.46 551.28 570.876 577.836 565.071C586.853 563.1 595.868 561.063 604.953 559.427C619.515 556.805 635.14 554.937 648.859 549.2C659.53 544.738 666.828 536.21 675.457 528.878Z"/>
	<path fill="#FAF2CA" transform="scale(0.5 0.5)" d="M228.721 858.75L895.067 858.595C895.002 873.87 894.972 889.145 895.031 904.42C895.05 909.213 895.096 914.006 895.132 918.799C895.154 921.634 895.444 924.618 894.75 927.378L227.436 926.496C227.522 909.16 227.778 891.825 227.902 874.488C227.929 870.799 227.955 867.111 227.98 863.422C227.986 862.6 227.754 860.742 228.004 860.008C228.159 859.551 228.482 859.169 228.721 858.75Z"/>
	<path fill="#F7D465" transform="scale(0.5 0.5)" d="M408.616 653.019L463.828 654.45C465.345 660.578 467.137 665.463 471.673 669.989C475.815 674.123 480.831 676.656 486.671 677.299C491.116 677.789 495.853 677.475 500.327 677.471C508.168 677.464 516.008 677.45 523.849 677.437C550.518 677.393 577.209 677.23 603.875 677.302C700.952 677.563 798.026 677.05 895.105 677.495L895.331 811.887C843.449 811.642 791.559 811.942 739.677 811.943C700.452 811.944 661.223 811.603 622 811.61C514.206 811.63 406.417 812.225 298.62 812.043C263.713 811.984 228.806 812.058 193.899 811.998C182.6 811.979 171.299 811.946 160 811.816C154.751 811.756 147.793 812.438 142.856 810.806C138.454 809.35 133.623 804.949 131.596 800.754L131.319 800.148C130.339 798.063 130.492 796.028 130.441 793.769C130.351 789.742 130.336 785.715 130.255 781.689C129.764 757.557 129.988 733.384 130.262 709.25C130.317 704.385 130.338 699.52 130.399 694.656C130.432 692.066 130.221 689.125 130.634 686.578C131.286 682.554 135.885 678.007 139.712 676.941C143.949 675.762 149.683 676.558 154.091 676.608C164.311 676.722 174.531 676.867 184.752 676.92C223.535 677.124 262.315 676.584 301.102 677.04C319.938 677.262 338.738 677.185 357.574 677.108C367.023 677.069 376.995 677.745 386.346 676.719C390.836 676.226 395.418 674.914 399 672.065C405.065 667.241 407.689 660.527 408.616 653.019Z"/>
	<path fill="#0C3C69" transform="scale(0.5 0.5)" d="M604.78 720.745C630.425 720.54 656.134 720.62 681.782 720.696C688.351 720.716 694.918 720.78 701.486 720.829C704.901 720.855 708.946 720.524 712.287 721.164C716.719 722.014 721.42 724.492 724.718 727.54C729.008 731.504 731.4 736.966 731.569 742.796C731.778 750.01 729.755 756.406 724.534 761.609C720.643 765.487 715.293 767.831 709.848 768.346C703.147 768.979 695.986 768.545 689.249 768.524C676.273 768.485 663.297 768.406 650.321 768.341C614.944 768.163 579.609 768.532 544.233 768.067C528.908 767.865 513.59 768.214 498.266 768.182C442.425 768.066 386.588 768.319 330.747 768.086C305.352 767.995 279.945 768.145 254.549 768.2C247.568 768.215 240.587 768.269 233.606 768.279C229.24 768.286 224.468 768.533 220.167 767.807C215.964 767.099 212.253 764.975 209.176 762.08C204.278 757.473 201.584 750.986 201.543 744.267C201.506 738.29 203.974 731.762 208.281 727.576C211.987 723.975 217.413 721.476 222.56 720.977C227.187 720.528 232 720.877 236.654 720.928C243.619 721.004 250.583 720.957 257.547 720.922C287.992 720.77 318.435 721.024 348.88 721.135C380.212 721.249 411.547 720.938 442.88 720.923C496.846 720.898 550.814 721.054 604.78 720.745Z"/>
</svg>
